<mxfile host="65bd71144e">
    <diagram id="tJo8iHyoETUMlcziOTl2" name="Page-1">
        <mxGraphModel dx="907" dy="409" grid="1" gridSize="10" guides="1" tooltips="1" connect="1" arrows="1" fold="1" page="1" pageScale="1" pageWidth="850" pageHeight="1100" math="0" shadow="0">
            <root>
                <mxCell id="0"/>
                <mxCell id="1" parent="0"/>
                <mxCell id="3" value="应用层" style="rounded=1;whiteSpace=wrap;html=1;" vertex="1" parent="1">
                    <mxGeometry x="110" y="60" width="120" height="40" as="geometry"/>
                </mxCell>
                <mxCell id="4" value="OSI" style="text;html=1;align=center;verticalAlign=middle;whiteSpace=wrap;rounded=0;" vertex="1" parent="1">
                    <mxGeometry x="130" y="20" width="60" height="30" as="geometry"/>
                </mxCell>
                <mxCell id="5" value="表示层" style="rounded=1;whiteSpace=wrap;html=1;" vertex="1" parent="1">
                    <mxGeometry x="110" y="100" width="120" height="40" as="geometry"/>
                </mxCell>
                <mxCell id="6" value="会话层" style="rounded=1;whiteSpace=wrap;html=1;" vertex="1" parent="1">
                    <mxGeometry x="110" y="140" width="120" height="40" as="geometry"/>
                </mxCell>
                <mxCell id="7" value="传输层" style="rounded=1;whiteSpace=wrap;html=1;" vertex="1" parent="1">
                    <mxGeometry x="110" y="180" width="120" height="40" as="geometry"/>
                </mxCell>
                <mxCell id="8" value="网络层" style="rounded=1;whiteSpace=wrap;html=1;" vertex="1" parent="1">
                    <mxGeometry x="110" y="220" width="120" height="40" as="geometry"/>
                </mxCell>
                <mxCell id="9" value="数据链路层" style="rounded=1;whiteSpace=wrap;html=1;" vertex="1" parent="1">
                    <mxGeometry x="110" y="260" width="120" height="40" as="geometry"/>
                </mxCell>
                <mxCell id="10" value="物理层" style="rounded=1;whiteSpace=wrap;html=1;" vertex="1" parent="1">
                    <mxGeometry x="110" y="300" width="120" height="40" as="geometry"/>
                </mxCell>
                <mxCell id="14" value="网络接口层" style="rounded=1;whiteSpace=wrap;html=1;" vertex="1" parent="1">
                    <mxGeometry x="305" y="260" width="120" height="80" as="geometry"/>
                </mxCell>
                <mxCell id="15" value="传输层" style="rounded=1;whiteSpace=wrap;html=1;" vertex="1" parent="1">
                    <mxGeometry x="305" y="180" width="120" height="40" as="geometry"/>
                </mxCell>
                <mxCell id="16" value="网络层" style="rounded=1;whiteSpace=wrap;html=1;" vertex="1" parent="1">
                    <mxGeometry x="305" y="220" width="120" height="40" as="geometry"/>
                </mxCell>
                <mxCell id="17" value="网络接口层" style="rounded=1;whiteSpace=wrap;html=1;" vertex="1" parent="1">
                    <mxGeometry x="300" y="60" width="130" height="120" as="geometry"/>
                </mxCell>
                <mxCell id="18" value="TCP/IP" style="text;html=1;align=center;verticalAlign=middle;whiteSpace=wrap;rounded=0;" vertex="1" parent="1">
                    <mxGeometry x="320" y="20" width="60" height="30" as="geometry"/>
                </mxCell>
                <mxCell id="19" value="HTTP" style="text;html=1;align=center;verticalAlign=middle;whiteSpace=wrap;rounded=0;" vertex="1" parent="1">
                    <mxGeometry x="430" y="70" width="60" height="30" as="geometry"/>
                </mxCell>
                <mxCell id="36" style="edgeStyle=none;html=1;" edge="1" parent="1">
                    <mxGeometry relative="1" as="geometry">
                        <mxPoint x="490" y="360" as="targetPoint"/>
                        <mxPoint x="500" y="40" as="sourcePoint"/>
                    </mxGeometry>
                </mxCell>
                <mxCell id="20" value="HTTP数据+TCP首部" style="text;html=1;align=center;verticalAlign=middle;whiteSpace=wrap;rounded=0;" vertex="1" parent="1">
                    <mxGeometry x="430" y="170" width="60" height="30" as="geometry"/>
                </mxCell>
                <mxCell id="21" value="HTTP数据+TCP首部+IP首部" style="text;html=1;align=center;verticalAlign=middle;whiteSpace=wrap;rounded=0;" vertex="1" parent="1">
                    <mxGeometry x="430" y="220" width="120" height="30" as="geometry"/>
                </mxCell>
                <mxCell id="23" value="HTTP数据+TCP首部+IP首部+以太网首部" style="text;html=1;align=center;verticalAlign=middle;whiteSpace=wrap;rounded=0;" vertex="1" parent="1">
                    <mxGeometry x="430" y="285" width="120" height="30" as="geometry"/>
                </mxCell>
                <mxCell id="24" value="网络接口层" style="rounded=1;whiteSpace=wrap;html=1;" vertex="1" parent="1">
                    <mxGeometry x="615" y="250" width="120" height="80" as="geometry"/>
                </mxCell>
                <mxCell id="25" value="传输层" style="rounded=1;whiteSpace=wrap;html=1;" vertex="1" parent="1">
                    <mxGeometry x="615" y="170" width="120" height="40" as="geometry"/>
                </mxCell>
                <mxCell id="26" value="网络层" style="rounded=1;whiteSpace=wrap;html=1;" vertex="1" parent="1">
                    <mxGeometry x="615" y="210" width="120" height="40" as="geometry"/>
                </mxCell>
                <mxCell id="27" value="网络接口层" style="rounded=1;whiteSpace=wrap;html=1;" vertex="1" parent="1">
                    <mxGeometry x="610" y="50" width="130" height="120" as="geometry"/>
                </mxCell>
                <mxCell id="28" value="TCP/IP" style="text;html=1;align=center;verticalAlign=middle;whiteSpace=wrap;rounded=0;" vertex="1" parent="1">
                    <mxGeometry x="630" y="10" width="60" height="30" as="geometry"/>
                </mxCell>
                <mxCell id="29" value="HTTP" style="text;html=1;align=center;verticalAlign=middle;whiteSpace=wrap;rounded=0;" vertex="1" parent="1">
                    <mxGeometry x="740" y="60" width="60" height="30" as="geometry"/>
                </mxCell>
                <mxCell id="30" value="HTTP数据+TCP首部" style="text;html=1;align=center;verticalAlign=middle;whiteSpace=wrap;rounded=0;" vertex="1" parent="1">
                    <mxGeometry x="740" y="160" width="60" height="30" as="geometry"/>
                </mxCell>
                <mxCell id="31" value="HTTP数据+TCP首部+IP首部" style="text;html=1;align=center;verticalAlign=middle;whiteSpace=wrap;rounded=0;" vertex="1" parent="1">
                    <mxGeometry x="740" y="210" width="120" height="30" as="geometry"/>
                </mxCell>
                <mxCell id="32" value="HTTP数据+TCP首部+IP首部+以太网首部" style="text;html=1;align=center;verticalAlign=middle;whiteSpace=wrap;rounded=0;" vertex="1" parent="1">
                    <mxGeometry x="740" y="275" width="120" height="30" as="geometry"/>
                </mxCell>
                <mxCell id="39" value="" style="endArrow=classic;html=1;" edge="1" parent="1">
                    <mxGeometry width="50" height="50" relative="1" as="geometry">
                        <mxPoint x="500" y="360" as="sourcePoint"/>
                        <mxPoint x="680" y="370" as="targetPoint"/>
                        <Array as="points">
                            <mxPoint x="570" y="370"/>
                        </Array>
                    </mxGeometry>
                </mxCell>
                <mxCell id="41" value="" style="endArrow=classic;html=1;" edge="1" parent="1">
                    <mxGeometry width="50" height="50" relative="1" as="geometry">
                        <mxPoint x="760" y="380" as="sourcePoint"/>
                        <mxPoint x="860" y="40" as="targetPoint"/>
                        <Array as="points">
                            <mxPoint x="860" y="320"/>
                        </Array>
                    </mxGeometry>
                </mxCell>
                <mxCell id="42" value="7" style="text;html=1;align=center;verticalAlign=middle;whiteSpace=wrap;rounded=0;" vertex="1" parent="1">
                    <mxGeometry x="180" width="60" height="30" as="geometry"/>
                </mxCell>
                <mxCell id="43" value="4" style="text;html=1;align=center;verticalAlign=middle;whiteSpace=wrap;rounded=0;" vertex="1" parent="1">
                    <mxGeometry x="380" width="60" height="30" as="geometry"/>
                </mxCell>
                <mxCell id="45" value="" style="endArrow=classic;html=1;exitX=1;exitY=0.5;exitDx=0;exitDy=0;entryX=0;entryY=0.25;entryDx=0;entryDy=0;" edge="1" parent="1" source="9" target="14">
                    <mxGeometry width="50" height="50" relative="1" as="geometry">
                        <mxPoint x="230" y="325" as="sourcePoint"/>
                        <mxPoint x="280" y="275" as="targetPoint"/>
                    </mxGeometry>
                </mxCell>
                <mxCell id="46" value="" style="endArrow=classic;html=1;exitX=1;exitY=0.5;exitDx=0;exitDy=0;entryX=0;entryY=0.25;entryDx=0;entryDy=0;" edge="1" parent="1">
                    <mxGeometry width="50" height="50" relative="1" as="geometry">
                        <mxPoint x="230" y="330" as="sourcePoint"/>
                        <mxPoint x="305" y="330" as="targetPoint"/>
                    </mxGeometry>
                </mxCell>
            </root>
        </mxGraphModel>
    </diagram>
</mxfile>